<svg xmlns="http://www.w3.org/2000/svg" viewBox="0 0 282.58 120.68"><defs><style>.cls-1{fill:#1d3244;}.cls-2{fill:#d91277;}</style></defs><g id="Layer_2" data-name="Layer 2"><g id="OBJECTS"><circle class="cls-1" cx="94.75" cy="51.89" r="7.21"/><path class="cls-1" d="M71.94,44.67a7.22,7.22,0,1,1-7.21,7.22A7.22,7.22,0,0,1,71.94,44.67Z"/><circle class="cls-1" cx="49.14" cy="51.89" r="7.21"/><path class="cls-2" d="M233.44,44.67a7.22,7.22,0,1,1-7.21,7.22A7.22,7.22,0,0,1,233.44,44.67Z"/><path class="cls-2" d="M210.64,44.67a7.22,7.22,0,1,1-7.22,7.22A7.21,7.21,0,0,1,210.64,44.67Z"/><path class="cls-2" d="M187.83,44.67a7.22,7.22,0,1,1-7.21,7.22A7.21,7.21,0,0,1,187.83,44.67Z"/><path class="cls-2" d="M141.29,29.92a6.49,6.49,0,0,0-6.48,6.49v39a14.9,14.9,0,0,1-14.88,14.88H65.07L54.55,101.6,44,90.24H27.85A14.9,14.9,0,0,1,13,75.36V27.85A14.89,14.89,0,0,1,27.85,13h93.68A43.8,43.8,0,0,1,129,0H27.85A27.88,27.88,0,0,0,0,27.85V75.36a27.88,27.88,0,0,0,27.85,27.85H38.36l16.19,17.47,16.19-17.47h49.19a27.88,27.88,0,0,0,27.85-27.85V36.41A6.5,6.5,0,0,0,141.29,29.92Z"/><path class="cls-1" d="M254.73,0H162.65a27.87,27.87,0,0,0-27.84,27.85V50.07a6.49,6.49,0,1,0,13,0V27.85A14.89,14.89,0,0,1,162.65,13h92.08a14.89,14.89,0,0,1,14.88,14.88V75.36a14.9,14.9,0,0,1-14.88,14.88H238.56L228,101.6,217.51,90.24H161a43.58,43.58,0,0,1-7.42,13h58.22L228,120.68l16.19-17.47h10.51a27.88,27.88,0,0,0,27.85-27.85V27.85A27.88,27.88,0,0,0,254.73,0Z"/></g></g></svg>